<svg xmlns="http://www.w3.org/2000/svg" viewBox="0 0 512 512" role="img" aria-label="M&S Meme Studio icon">
  <rect width="512" height="512" rx="96" fill="#0f4d36"/>
  <path d="M142 146h228c24 0 43 19 43 43v111c0 24-19 43-43 43H226l-69 62c-12 11-31 2-31-14v-48h16c-24 0-43-19-43-43V189c0-24 19-43 43-43Z" fill="#f7f8f4"/>
  <path d="M171 273V207h28l29 38 29-38h28v66h-29v-30l-21 27h-14l-21-27v30h-29Zm150 2c-15 0-28-5-38-14l16-18c8 7 16 10 24 10 6 0 10-2 10-6 0-3-3-5-10-7l-12-3c-17-4-25-13-25-28 0-12 5-21 14-28 9-6 21-10 35-10 13 0 25 4 35 11l-14 19c-7-5-14-8-22-8-7 0-10 2-10 6 0 3 3 5 10 7l12 3c17 4 26 13 26 28 0 12-5 22-14 29-10 7-22 11-37 11Z" fill="#0f4d36"/>
  <circle cx="151" cy="160" r="38" fill="#c61f3e"/>
  <path d="M140 154h23v12h-23z" fill="#f7f8f4"/>
</svg>
